<mxfile host="Electron" modified="2023-08-05T14:27:38.038Z" agent="Mozilla/5.0 (Windows NT 10.0; Win64; x64) AppleWebKit/537.36 (KHTML, like Gecko) draw.io/21.6.5 Chrome/114.0.5735.243 Electron/25.3.1 Safari/537.36" etag="IJ_DSgaP9oHwqm8IL1lF" version="21.6.5" type="device">
  <diagram name="Page-1" id="GW4PRI-SzLnYaovixFQ-">
    <mxGraphModel dx="880" dy="545" grid="0" gridSize="10" guides="1" tooltips="1" connect="1" arrows="1" fold="1" page="1" pageScale="1" pageWidth="1169" pageHeight="827" math="0" shadow="0">
      <root>
        <mxCell id="0" />
        <mxCell id="1" parent="0" />
        <mxCell id="0ufcSYlWclDTzRBUZxRD-3" style="edgeStyle=orthogonalEdgeStyle;rounded=0;orthogonalLoop=1;jettySize=auto;html=1;endArrow=none;endFill=0;" edge="1" parent="1" source="0ufcSYlWclDTzRBUZxRD-1" target="0ufcSYlWclDTzRBUZxRD-2">
          <mxGeometry relative="1" as="geometry" />
        </mxCell>
        <mxCell id="0ufcSYlWclDTzRBUZxRD-4" value="endA" style="edgeLabel;html=1;align=center;verticalAlign=bottom;resizable=0;points=[];" vertex="1" connectable="0" parent="0ufcSYlWclDTzRBUZxRD-3">
          <mxGeometry x="-0.7125" y="-1" relative="1" as="geometry">
            <mxPoint as="offset" />
          </mxGeometry>
        </mxCell>
        <mxCell id="0ufcSYlWclDTzRBUZxRD-5" value="endB" style="edgeLabel;html=1;align=center;verticalAlign=bottom;resizable=0;points=[];" vertex="1" connectable="0" parent="0ufcSYlWclDTzRBUZxRD-3">
          <mxGeometry x="0.7125" relative="1" as="geometry">
            <mxPoint x="1" as="offset" />
          </mxGeometry>
        </mxCell>
        <mxCell id="0ufcSYlWclDTzRBUZxRD-6" value="BinaryAssociationAB" style="edgeLabel;html=1;align=center;verticalAlign=top;resizable=0;points=[];" vertex="1" connectable="0" parent="0ufcSYlWclDTzRBUZxRD-3">
          <mxGeometry x="0.0125" y="-1" relative="1" as="geometry">
            <mxPoint as="offset" />
          </mxGeometry>
        </mxCell>
        <mxCell id="0ufcSYlWclDTzRBUZxRD-10" value="*" style="edgeLabel;html=1;align=center;verticalAlign=middle;resizable=0;points=[];" vertex="1" connectable="0" parent="0ufcSYlWclDTzRBUZxRD-3">
          <mxGeometry x="0.85" y="1" relative="1" as="geometry">
            <mxPoint y="9" as="offset" />
          </mxGeometry>
        </mxCell>
        <mxCell id="0ufcSYlWclDTzRBUZxRD-11" value="*" style="edgeLabel;html=1;align=center;verticalAlign=middle;resizable=0;points=[];" vertex="1" connectable="0" parent="0ufcSYlWclDTzRBUZxRD-3">
          <mxGeometry x="-0.7625" relative="1" as="geometry">
            <mxPoint x="-4" y="8" as="offset" />
          </mxGeometry>
        </mxCell>
        <mxCell id="0ufcSYlWclDTzRBUZxRD-1" value="&lt;b&gt;A&lt;/b&gt;" style="fontStyle=0;html=1;whiteSpace=wrap;" vertex="1" parent="1">
          <mxGeometry y="170" width="80" height="40" as="geometry" />
        </mxCell>
        <mxCell id="0ufcSYlWclDTzRBUZxRD-2" value="B" style="fontStyle=1;html=1;whiteSpace=wrap;" vertex="1" parent="1">
          <mxGeometry x="240" y="170" width="80" height="40" as="geometry" />
        </mxCell>
        <mxCell id="0ufcSYlWclDTzRBUZxRD-7" value="" style="shape=waypoint;sketch=0;size=6;pointerEvents=1;points=[];fillColor=none;resizable=0;rotatable=0;perimeter=centerPerimeter;snapToPoint=1;" vertex="1" parent="1">
          <mxGeometry x="73" y="180" width="20" height="20" as="geometry" />
        </mxCell>
        <mxCell id="0ufcSYlWclDTzRBUZxRD-8" value="&lt;b&gt;Figure 11.26 Graphic notation indicating exactly one Association end owned by the Association&lt;/b&gt;" style="text;html=1;align=left;verticalAlign=middle;resizable=0;points=[];autosize=1;strokeColor=none;fillColor=none;" vertex="1" parent="1">
          <mxGeometry y="220" width="570" height="30" as="geometry" />
        </mxCell>
        <mxCell id="0ufcSYlWclDTzRBUZxRD-9" value="&lt;div&gt;«Explicit end-ownership notation is not mandatory, i.e., a conforming tool may not support it. Where the dot notation is&lt;/div&gt;&lt;div&gt;used, it shall be applied consistently throughout each diagram, so that the absence of the dot signifies ownership by the&lt;/div&gt;&lt;div&gt;Association. Stated otherwise, when applying this notation to a binary Association in a user model, the dot will be&lt;/div&gt;&lt;div&gt;omitted only for ends which are not owned by a Classifier. In this way, in contexts where the notation is used, the&lt;/div&gt;&lt;div&gt;absence of the dot on certain ends does not leave the ownership of those ends ambiguous.&lt;/div&gt;&lt;div&gt;&lt;br&gt;&lt;/div&gt;&lt;div&gt;The dot is illustrated in Figure 11.26, at the maximum allowed size. The diagram shows endA to be owned by Classifier&lt;/div&gt;&lt;div&gt;B, and because the notation must be applied consistently throughout the diagram, this diagram also shows&lt;/div&gt;&lt;div style=&quot;&quot;&gt;unambiguously that endB is owned by BinaryAssociationAB.» (Unified Modeling Language 2.5.1, p. 202)&lt;/div&gt;" style="text;html=1;align=left;verticalAlign=top;resizable=0;points=[];autosize=1;strokeColor=none;fillColor=none;" vertex="1" parent="1">
          <mxGeometry width="660" height="140" as="geometry" />
        </mxCell>
      </root>
    </mxGraphModel>
  </diagram>
</mxfile>
